<svg xmlns="http://www.w3.org/2000/svg" viewBox="0 0 64 64">
  <defs>
    <linearGradient id="bg" x1="0%" y1="0%" x2="100%" y2="100%">
      <stop offset="0%" stop-color="#3D0B1E"/>
      <stop offset="100%" stop-color="#8B2E50"/>
    </linearGradient>
  </defs>
  <rect width="64" height="64" rx="14" fill="url(#bg)"/>

  <!-- spa icon scaled 1.9x (≈45px wide), centred, top margin 3px -->
  <g transform="translate(9,3) scale(1.9)" fill="white">
    <path d="M15.49,9.63c-0.18-2.79-1.31-5.51-3.49-7.63C9.82,4.12,8.69,6.84,8.51,9.63
             C7.02,8.27,5.25,7.47,3,7.47C3,13.1,6.87,16.92,12,16.92s9-3.82,9-9.45
             C18.75,7.47,16.98,8.27,15.49,9.63z"/>
    <path d="M12,19.08c-2.5,0-3.96-1.54-3.96-2.59c1.5-0.32,2.67-0.49,3.96-0.49
             s2.46,0.17,3.96,0.49C15.96,17.54,14.5,19.08,12,19.08z"/>
  </g>

  <!-- Dots sit just below the icon (icon bottom ≈ y=41) -->
  <circle cx="21" cy="52" r="4" fill="#C9A84C"/>
  <circle cx="32" cy="52" r="4" fill="#E8C574"/>
  <circle cx="43" cy="52" r="4" fill="#C9A84C"/>
</svg>
